<svg width="74" height="74" viewBox="0 0 74 74" fill="none" xmlns="http://www.w3.org/2000/svg">
  <g filter="url(#filter0_b_4603_6921)">
    <path d="M6.93555 37.0002C6.93555 53.604 20.3943 67.0627 36.998 67.0627C53.6018 67.0627 67.0605 53.604 67.0605 37.0002C67.0605 20.3965 53.6018 6.93774 36.998 6.93774C20.3943 6.93774 6.93555 20.3965 6.93555 37.0002ZM38.7093 28.703L38.8573 28.7955C39.4215 29.1347 39.9858 29.4985 40.4976 29.8562C41.0804 30.2662 41.694 30.7411 42.289 31.2282L42.4124 31.33C43.3405 32.0854 44.2593 32.8347 44.913 33.5962C45.6961 34.5058 46.248 35.5942 46.248 37.0002C46.248 38.4062 45.693 39.4947 44.913 40.4042C44.2593 41.1658 43.3405 41.9151 42.4155 42.6705L42.2921 42.7722C41.694 43.2594 41.0804 43.7342 40.4976 44.1443C39.9625 44.5165 39.4154 44.8713 38.8573 45.2081L38.7093 45.3006C37.809 45.8463 36.8593 46.426 35.996 46.7343C35.4199 46.953 34.8042 47.0476 34.1891 47.0118C33.4816 46.9591 32.8046 46.702 32.2405 46.2718C31.1058 45.4147 30.6865 44.1998 30.486 43.1577C30.298 42.1895 30.227 40.9654 30.15 39.6303L30.1407 39.4885C30.0905 38.66 30.0638 37.8302 30.0605 37.0002C30.0605 36.2171 30.0914 35.363 30.1407 34.512L30.15 34.3702C30.227 33.0351 30.298 31.811 30.486 30.8397C30.6865 29.8007 31.1027 28.5858 32.2435 27.7317C32.7985 27.3124 33.4522 27.0442 34.186 26.9917C34.8032 26.9552 35.4211 27.0498 35.999 27.2692C36.8562 27.5776 37.809 28.1542 38.7093 28.703Z" fill="white"/>
  </g>
  <defs>
    <filter id="filter0_b_4603_6921" x="-4" y="-4" width="82" height="82" filterUnits="userSpaceOnUse" color-interpolation-filters="sRGB">
      <feFlood flood-opacity="0" result="BackgroundImageFix"/>
      <feGaussianBlur in="BackgroundImageFix" stdDeviation="2"/>
      <feComposite in2="SourceAlpha" operator="in" result="effect1_backgroundBlur_4603_6921"/>
      <feBlend mode="normal" in="SourceGraphic" in2="effect1_backgroundBlur_4603_6921" result="shape"/>
    </filter>
  </defs>
</svg>
