<svg width="1512" height="571" viewBox="0 0 1512 571" fill="none" xmlns="http://www.w3.org/2000/svg">
  <path fill-rule="evenodd" clip-rule="evenodd" d="M580.944 113.909C603.376 194.816 560.753 285.121 453.919 334.623L453.171 334.969L384.648 363.72C440.618 445.769 546.192 481.088 672.121 480.629C791.116 480.195 916.149 447.125 1005.34 402.933C972.334 365.671 944.508 318.669 932.411 268.999C923.373 231.894 922.695 191.32 937.602 152.195C952.686 112.605 982.17 78.6229 1026.17 52.7204C1076.39 23.1591 1128.02 18.7192 1173.64 34.4429C1218.08 49.7558 1252.85 82.7595 1274.51 121.367C1317.48 197.972 1314.7 311.199 1216.45 376.037L1164.9 410.052C1192.58 422.422 1219.59 428.642 1246 430.353C1290.9 433.262 1336.83 423.292 1384.2 403.963C1462.53 371.999 1537.46 318.079 1612.09 264.375C1629.95 251.52 1647.8 238.677 1665.67 226.15C1686.02 211.886 1714.09 216.821 1728.35 237.172C1742.61 257.524 1737.68 285.586 1717.33 299.85C1701.68 310.815 1685.39 322.564 1668.54 334.717C1593.56 388.791 1507.51 450.852 1418.2 487.293C1362.33 510.089 1302.5 524.203 1240.18 520.165C1186.01 516.656 1132.04 499.56 1079.06 465.544C974.508 525.772 819.088 570.094 672.449 570.629C527.979 571.155 377.122 528.347 300.264 398.918L155.547 458.86C48.531 503.186 -66.1674 526 -182 526C-206.853 526 -227 505.853 -227 481C-227 456.147 -206.853 436 -182 436C-77.986 436 25.0096 415.514 121.107 375.71L264.124 316.473C248.641 269.905 237.693 216.279 242.302 165.96C245.415 131.966 255.845 97.2923 278.951 67.8203C302.398 37.9139 336.149 16.8868 379.486 6.07623C477.273 -18.3168 558.903 34.416 580.944 113.909ZM1084.21 355.469L1166.88 300.919C1216.54 268.145 1221.71 211.215 1196.01 165.399C1183.33 142.797 1164.61 126.525 1144.32 119.532C1125.22 112.949 1100.89 113.173 1071.83 130.279C1042.88 147.322 1028.52 166.348 1021.7 184.238C1014.71 202.593 1014.07 223.972 1019.85 247.701C1029.33 286.606 1054.84 326.296 1084.21 355.469ZM347.467 281.719C335.743 244.64 328.967 206.489 331.927 174.168C333.911 152.495 340.056 135.751 349.779 123.349C359.161 111.382 374.492 100.08 401.27 93.4003C453.526 80.3649 485.706 107.263 494.216 137.956C502.308 167.143 492.31 217.354 416.799 252.629L347.467 281.719Z" fill="url(#paint0_linear_8607_2314)"/>
  <path opacity="0.25" d="M384.5 363.5L300.5 399L326.5 436.5L356.5 468.5L433 421L405 393L384.5 363.5Z" fill="url(#paint1_linear_8607_2314)"/>
  <path opacity="0.25" d="M988 509.5L928 437.5L1005 403L1040.5 436L1079 466L988 509.5Z" fill="url(#paint2_linear_8607_2314)"/>
  <path opacity="0.25" d="M1260 345.5L1185.5 289.5L1084.5 355.5L1100.83 368.605C1115.26 380.186 1130.52 390.686 1146.5 400.019L1163.85 410.161L1260 345.5Z" fill="url(#paint3_linear_8607_2314)"/>
  <path opacity="0.25" d="M347.5 281.5L264 316.5L253 280L246 242L330 199L336.5 242L347.5 281.5Z" fill="url(#paint4_linear_8607_2314)"/>
  <defs>
    <linearGradient id="paint0_linear_8607_2314" x1="755" y1="-5.84757e-10" x2="755" y2="820" gradientUnits="userSpaceOnUse">
      <stop stop-color="#EFF6FF"/>
      <stop offset="1" stop-color="#DBEAFE"/>
    </linearGradient>
    <linearGradient id="paint1_linear_8607_2314" x1="304" y1="403" x2="399" y2="524.5" gradientUnits="userSpaceOnUse">
      <stop stop-color="#8EABFF"/>
      <stop offset="0.473356" stop-color="#8EABFF" stop-opacity="0"/>
      <stop offset="0.813095" stop-color="#8EABFF" stop-opacity="0"/>
    </linearGradient>
    <linearGradient id="paint2_linear_8607_2314" x1="1085.5" y1="442.5" x2="990.5" y2="564" gradientUnits="userSpaceOnUse">
      <stop stop-color="#8EABFF"/>
      <stop offset="0.473356" stop-color="#8EABFF" stop-opacity="0"/>
      <stop offset="0.813095" stop-color="#8EABFF" stop-opacity="0"/>
    </linearGradient>
    <linearGradient id="paint3_linear_8607_2314" x1="1139.47" y1="410.357" x2="1281.42" y2="350.04" gradientUnits="userSpaceOnUse">
      <stop stop-color="#8EABFF"/>
      <stop offset="0.473356" stop-color="#8EABFF" stop-opacity="0"/>
      <stop offset="0.813095" stop-color="#8EABFF" stop-opacity="0"/>
    </linearGradient>
    <linearGradient id="paint4_linear_8607_2314" x1="266.5" y1="320" x2="228.5" y2="139.5" gradientUnits="userSpaceOnUse">
      <stop stop-color="#8EABFF"/>
      <stop offset="0.473356" stop-color="#8EABFF" stop-opacity="0"/>
      <stop offset="0.813095" stop-color="#8EABFF" stop-opacity="0"/>
    </linearGradient>
  </defs>
</svg>
