<svg width="92" height="20" viewBox="0 0 92 20" fill="none" xmlns="http://www.w3.org/2000/svg">
  <g clip-path="url(#clip0_4603_6892)">
    <path d="M4.07436 0.500854C1.82307 0.500854 -0.00195312 2.30589 -0.00195312 4.53251V8.48903L2.85022 5.85208C5.08459 3.78632 8.70722 3.78632 10.9416 5.85209L15.2156 9.80357C15.3387 9.91739 15.3387 10.1105 15.2156 10.2243L6.26522 18.4993H14.1195C16.3708 18.4993 18.1959 16.6943 18.1959 14.4676V4.53251C18.1959 2.30589 16.3708 0.500854 14.1195 0.500854H4.07436Z" fill="#1E3A8A"/>
    <path d="M91.793 2.54041V15.8305H88.916V2.54041H91.793Z" fill="#1E3A8A"/>
    <path d="M87.1516 11.0385C87.1516 12.0618 86.9244 12.9602 86.4703 13.7339C86.0287 14.5076 85.3852 15.1003 84.5398 15.5122C83.7071 15.9239 82.7356 16.1298 81.6253 16.1298C80.4897 16.1298 79.5056 15.9239 78.6729 15.5122C77.8401 15.1003 77.1967 14.5076 76.7425 13.7339C76.3009 12.9602 76.0801 12.0618 76.0801 11.0385V2.52161H78.9567V11.0385C78.9567 11.912 79.1839 12.5796 79.638 13.0413C80.1049 13.5031 80.7673 13.7339 81.6253 13.7339C82.458 13.7339 83.1078 13.5031 83.5746 13.0413C84.0415 12.5796 84.2748 11.912 84.2748 11.0385V2.52161H87.1516V11.0385Z" fill="#1E3A8A"/>
    <path d="M70.9279 15.8305H68.1836L68.1269 14.3891C67.8493 14.9257 67.4518 15.3375 66.9345 15.6245C66.4172 15.9116 65.8053 16.055 65.0988 16.055C64.1903 16.055 63.4143 15.8305 62.7709 15.3812C62.14 14.9319 61.6606 14.3205 61.3325 13.5468C61.0171 12.7606 60.8594 11.8684 60.8594 10.8701C60.8594 9.87174 61.0171 8.98573 61.3325 8.21204C61.6606 7.42587 62.14 6.80816 62.7709 6.35892C63.4143 5.90968 64.1903 5.68506 65.0988 5.68506C65.7674 5.68506 66.3541 5.82233 66.8588 6.09686C67.3635 6.3714 67.7673 6.77072 68.0701 7.29484V5.90968H70.9279V15.8305ZM63.774 10.8701C63.774 11.7436 63.9632 12.4736 64.3417 13.0601C64.7329 13.6342 65.2816 13.9211 65.9882 13.9211C66.4803 13.9211 66.8903 13.7838 67.2184 13.5094C67.5591 13.2348 67.8114 12.8667 67.9754 12.405C68.152 11.9308 68.2404 11.4191 68.2404 10.8701C68.2404 10.296 68.152 9.77814 67.9754 9.31642C67.8114 8.84223 67.5591 8.46786 67.2184 8.19332C66.8903 7.91879 66.4803 7.78152 65.9882 7.78152C65.2565 7.78152 64.7013 8.07477 64.3228 8.66128C63.9568 9.23531 63.774 9.97157 63.774 10.8701Z" fill="#1E3A8A"/>
    <path d="M53.3343 5.90968L53.4478 8.81103L53.0882 8.69872C53.227 7.63801 53.5866 6.87056 54.167 6.39636C54.76 5.92216 55.5044 5.68506 56.4002 5.68506C57.4853 5.68506 58.3307 6.02199 58.9363 6.69585C59.5418 7.36971 59.8447 8.28691 59.8447 9.44745V15.8305H57.0059V10.3834C57.0059 9.53481 56.8922 8.91086 56.6652 8.51153C56.4381 8.11221 56.0343 7.91255 55.4539 7.91255C54.861 7.91255 54.4067 8.12469 54.0913 8.54897C53.7759 8.97325 53.6182 9.58472 53.6182 10.3834V15.8305H50.7793V5.90968H53.3343Z" fill="#1E3A8A"/>
    <path d="M42.2845 5.90967L44.7827 12.8916L47.2052 5.90967H49.8926L45.9561 16.7851C45.7163 17.4215 45.3694 17.8895 44.9152 18.1889C44.4736 18.4884 43.8869 18.6382 43.1551 18.6382H41.3572V16.5979H42.6251C42.928 16.5979 43.1614 16.548 43.3255 16.4481C43.5021 16.3483 43.6409 16.1736 43.7418 15.924L43.9879 15.325H43.1929L39.5781 5.90967H42.2845Z" fill="#1E3A8A"/>
    <path d="M27.8615 2.54041L31.287 12.2178L34.6747 2.54041H38.5356V15.8305H35.6399V7.14514L32.4983 15.793H30.0379L26.8963 7.14514V15.8305H24.0195V2.54041H27.8615Z" fill="#1E3A8A"/>
  </g>
  <defs>
    <clipPath id="clip0_4603_6892">
      <rect width="92" height="19" fill="white" transform="translate(0 0.5)"/>
    </clipPath>
  </defs>
</svg>
