<svg width="30" height="35" viewBox="0 0 30 35" fill="none" xmlns="http://www.w3.org/2000/svg">
  <path d="M24.4426 18.5841C24.4027 14.2772 28.0712 12.1819 28.239 12.0844C26.1614 9.1405 22.9411 8.73827 21.8095 8.7062C19.1049 8.42959 16.4814 10.279 15.1036 10.279C13.6984 10.279 11.5767 8.73293 9.29011 8.77836C6.3476 8.82246 3.59485 10.4781 2.0851 13.0492C-1.03065 18.2914 1.2931 25.9952 4.27823 30.2326C5.77148 32.3078 7.51636 34.625 9.80023 34.5434C12.0346 34.4539 12.8692 33.159 15.5656 33.159C18.2372 33.159 19.021 34.5434 21.3502 34.4913C23.7482 34.4539 25.258 32.4067 26.699 30.3127C28.4246 27.9341 29.1176 25.5916 29.1451 25.4713C29.0887 25.4526 24.488 23.7462 24.4426 18.5841Z" fill="white"/>
  <path d="M20.0426 5.91869C21.2444 4.45813 22.0666 2.47106 21.8384 0.45459C20.099 0.529422 17.9237 1.62385 16.6711 3.05235C15.5629 4.31113 14.5729 6.37437 14.8286 8.31467C16.7825 8.45632 18.7886 7.35655 20.0426 5.91869Z" fill="white"/>
</svg>
