<svg width="33" height="36" viewBox="0 0 33 36" fill="none" xmlns="http://www.w3.org/2000/svg">
  <path d="M1.13766 1.34439C0.733749 1.7553 0.5 2.39506 0.5 3.22356V32.7757C0.5 33.6043 0.733749 34.244 1.13766 34.6549L1.23734 34.7451L18.277 18.1917V17.8009L1.23734 1.24751L1.13766 1.34439Z" fill="url(#paint0_linear_8648_92)"/>
  <path d="M23.949 23.7129L18.2754 18.1923V17.8015L23.9559 12.2809L24.0831 12.3527L30.8102 16.0726C32.7301 17.1283 32.7301 18.8655 30.8102 19.9278L24.0831 23.6411L23.949 23.7129V23.7129Z" fill="url(#paint1_linear_8648_92)"/>
  <path d="M24.0779 23.641L18.2702 17.9969L1.13086 34.6555C1.76852 35.3069 2.80836 35.3854 3.99086 34.734L24.0779 23.641" fill="url(#paint2_linear_8648_92)"/>
  <path d="M24.0779 12.3529L3.99086 1.25997C2.80836 0.615203 1.76852 0.693708 1.13086 1.34515L18.2702 17.9971L24.0779 12.3529Z" fill="url(#paint3_linear_8648_92)"/>
  <defs>
    <linearGradient id="paint0_linear_8648_92" x1="16.7641" y1="33.0835" x2="-5.653" y2="10.0171" gradientUnits="userSpaceOnUse">
      <stop stop-color="#00A0FF"/>
      <stop offset="0.0066" stop-color="#00A1FF"/>
      <stop offset="0.2601" stop-color="#00BEFF"/>
      <stop offset="0.5122" stop-color="#00D2FF"/>
      <stop offset="0.7604" stop-color="#00DFFF"/>
      <stop offset="1" stop-color="#00E3FF"/>
    </linearGradient>
    <linearGradient id="paint1_linear_8648_92" x1="33.3102" y1="17.995" x2="0.0394438" y2="17.995" gradientUnits="userSpaceOnUse">
      <stop stop-color="#FFE000"/>
      <stop offset="0.4087" stop-color="#FFBD00"/>
      <stop offset="0.7754" stop-color="#FFA500"/>
      <stop offset="1" stop-color="#FF9C00"/>
    </linearGradient>
    <linearGradient id="paint2_linear_8648_92" x1="20.9199" y1="14.9286" x2="-9.47955" y2="-16.3513" gradientUnits="userSpaceOnUse">
      <stop stop-color="#FF3A44"/>
      <stop offset="1" stop-color="#C31162"/>
    </linearGradient>
    <linearGradient id="paint3_linear_8648_92" x1="-3.18348" y1="44.4875" x2="10.3912" y2="30.5198" gradientUnits="userSpaceOnUse">
      <stop stop-color="#32A071"/>
      <stop offset="0.0685" stop-color="#2DA771"/>
      <stop offset="0.4762" stop-color="#15CF74"/>
      <stop offset="0.8009" stop-color="#06E775"/>
      <stop offset="1" stop-color="#00F076"/>
    </linearGradient>
  </defs>
</svg>
