<svg width="42" height="36" viewBox="0 0 42 36" fill="none" xmlns="http://www.w3.org/2000/svg">
  <path d="M35.7503 18.4479C35.5169 26.0271 29.3919 32.0625 21.9128 32.0625C19.7797 32.0652 17.6759 31.5664 15.7711 30.6063C18.8857 29.5625 22.2628 28.0229 25.6419 26.0438C29.6273 23.7104 33.1003 21.0667 35.7503 18.4479ZM11.6919 31.7188C14.6233 33.9703 18.2166 35.1898 21.9128 35.1875C31.3065 35.1875 38.8836 27.4708 38.8836 18C38.8836 17.0333 38.8044 16.0833 38.6523 15.1604C39.7065 13.7521 40.5065 12.3417 40.944 10.9917C41.4357 9.46251 41.5107 7.82918 40.7044 6.4146C39.8836 4.97293 38.4128 4.2146 36.8211 3.88751C35.3169 3.5771 33.5378 3.61251 31.6253 3.90418C28.7879 1.88894 25.3929 0.808257 21.9128 0.812513C12.5211 0.812513 4.94401 8.52918 4.94401 18C4.94401 18.2521 4.95026 18.5042 4.96067 18.7563C3.35026 20.5292 2.10442 22.3125 1.38567 23.9979C0.619007 25.7938 0.33984 27.7646 1.29609 29.4458C2.22942 31.0833 3.98984 31.8375 5.85026 32.0854C7.53776 32.3104 9.53776 32.1625 11.6919 31.7208M8.87109 28.9979C7.38774 27.1954 6.28628 25.1101 5.63359 22.8688C5.09142 23.6029 4.63039 24.3936 4.25859 25.2271C3.66484 26.6229 3.75442 27.45 4.01276 27.9021C4.25859 28.3333 4.87317 28.8042 6.26484 28.9896C6.99817 29.0875 7.87526 29.0938 8.87109 28.9979ZM34.7836 6.79793C35.3086 6.81251 35.7794 6.86251 36.1919 6.94793C37.2753 7.17085 37.7711 7.57918 37.9878 7.96043C38.2065 8.34168 38.3065 8.98126 37.9669 10.0313C37.8544 10.3854 37.6961 10.7667 37.4898 11.1729C36.8116 9.58748 35.8994 8.11274 34.7836 6.79793Z" fill="#FAFAF9"/>
</svg>
