<svg width="184" height="20" viewBox="0 0 184 20" fill="none" xmlns="http://www.w3.org/2000/svg">
  <path d="M4.07149 0.405762C1.82287 0.405762 0 2.22885 0 4.47773V8.47382L2.8488 5.8105C5.08053 3.72408 8.69889 3.72408 10.9306 5.81051L15.1995 9.80151C15.3225 9.91646 15.3225 10.1115 15.1995 10.2265L6.25977 18.5842H14.1048C16.3534 18.5842 18.1763 16.7611 18.1763 14.5122V4.47773C18.1763 2.22885 16.3534 0.405762 14.1048 0.405762H4.07149Z" fill="#083344"/>
  <path d="M91.6861 2.46582V15.8888H88.8125V2.46582H91.6861Z" fill="#083344"/>
  <path d="M87.0467 11.0488C87.0467 12.0824 86.8198 12.9898 86.3662 13.7712C85.9252 14.5526 85.2824 15.1513 84.438 15.5673C83.6063 15.9831 82.636 16.1911 81.5269 16.1911C80.3927 16.1911 79.4098 15.9831 78.578 15.5673C77.7462 15.1513 77.1036 14.5526 76.6499 13.7712C76.2088 12.9898 75.9883 12.0824 75.9883 11.0488V2.44678H78.8615V11.0488C78.8615 11.9311 79.0884 12.6054 79.542 13.0717C80.0084 13.538 80.67 13.7712 81.5269 13.7712C82.3587 13.7712 83.0077 13.538 83.474 13.0717C83.9403 12.6054 84.1734 11.9311 84.1734 11.0488V2.44678H87.0467V11.0488Z" fill="#083344"/>
  <path d="M70.8457 15.8889H68.1046L68.048 14.4332C67.7707 14.9752 67.3737 15.3911 66.857 15.6809C66.3403 15.9709 65.7292 16.1158 65.0234 16.1158C64.116 16.1158 63.341 15.8889 62.6983 15.4352C62.0682 14.9814 61.5893 14.3639 61.2616 13.5824C60.9466 12.7884 60.7891 11.8873 60.7891 10.879C60.7891 9.87064 60.9466 8.97577 61.2616 8.19434C61.5893 7.40031 62.0682 6.77642 62.6983 6.32269C63.341 5.86896 64.116 5.64209 65.0234 5.64209C65.6913 5.64209 66.2773 5.78073 66.7814 6.05801C67.2855 6.33529 67.6888 6.73861 67.9912 7.26797V5.86896H70.8457V15.8889ZM63.7002 10.879C63.7002 11.7612 63.8892 12.4985 64.2673 13.0909C64.658 13.6707 65.2061 13.9605 65.9118 13.9605C66.4033 13.9605 66.8129 13.8219 67.1406 13.5446C67.4809 13.2673 67.7329 12.8956 67.8967 12.4292C68.0731 11.9503 68.1614 11.4335 68.1614 10.879C68.1614 10.2992 68.0731 9.77611 67.8967 9.30977C67.7329 8.83083 67.4809 8.45272 67.1406 8.17544C66.8129 7.89815 66.4033 7.75951 65.9118 7.75951C65.181 7.75951 64.6265 8.0557 64.2484 8.64807C63.8829 9.22785 63.7002 9.97146 63.7002 10.879Z" fill="#083344"/>
  <path d="M53.2707 5.86896L53.3841 8.79932L53.0249 8.68589C53.1636 7.61457 53.5228 6.83944 54.1025 6.3605C54.6947 5.88156 55.4382 5.64209 56.333 5.64209C57.4168 5.64209 58.2612 5.98239 58.8661 6.66299C59.4709 7.34359 59.7735 8.26996 59.7735 9.44211V15.8889H56.938V10.3874C56.938 9.53033 56.8245 8.90015 56.5977 8.49683C56.3709 8.09351 55.9676 7.89185 55.3878 7.89185C54.7956 7.89185 54.3419 8.10611 54.0268 8.53464C53.7118 8.96317 53.5543 9.58075 53.5543 10.3874V15.8889H50.7188V5.86896H53.2707Z" fill="#083344"/>
  <path d="M42.2345 5.8689L44.7297 12.9207L47.1493 5.8689H49.8336L45.9017 16.8531C45.6622 17.4959 45.3157 17.9685 44.8621 18.271C44.421 18.5734 43.8349 18.7247 43.104 18.7247H41.3082V16.664H42.5747C42.8772 16.664 43.1103 16.6136 43.2742 16.5127C43.4506 16.4119 43.5892 16.2355 43.69 15.9834L43.9358 15.3784H43.1418L39.5312 5.8689H42.2345Z" fill="#083344"/>
  <path d="M27.8296 2.46582L31.2511 12.24L34.6348 2.46582H38.4911V15.8888H35.5989V7.1166L32.4609 15.8509H30.0035L26.8656 7.1166V15.8888H23.9922V2.46582H27.8296Z" fill="#083344"/>
</svg>
