<svg width="26" height="26" viewBox="0 0 26 26" fill="none" xmlns="http://www.w3.org/2000/svg">
  <path d="M0.8125 5.49991C0.812681 4.613 1.06447 3.74435 1.53863 2.99484C2.01278 2.24532 2.68985 1.6457 3.49118 1.26562C4.29251 0.885539 5.18523 0.740594 6.06565 0.847619C6.94608 0.954644 7.77807 1.30925 8.46501 1.87024C9.15194 2.43124 9.66563 3.17561 9.9464 4.0169C10.2272 4.85818 10.2635 5.76186 10.0512 6.62298C9.8389 7.48409 9.38665 8.26731 8.74698 8.88166C8.10732 9.49601 7.30648 9.91628 6.4375 10.0937V18.6249C6.4375 19.4874 7.1375 20.1874 8 20.1874H10.7375L9.2125 18.6624C9.12039 18.5766 9.04651 18.4731 8.99527 18.3581C8.94403 18.2431 8.91648 18.1189 8.91426 17.9931C8.91204 17.8672 8.93519 17.7421 8.98235 17.6254C9.0295 17.5087 9.09968 17.4026 9.1887 17.3136C9.27773 17.2246 9.38377 17.1544 9.5005 17.1073C9.61724 17.0601 9.74227 17.0369 9.86815 17.0392C9.99403 17.0414 10.1182 17.0689 10.2332 17.1202C10.3482 17.1714 10.4517 17.2453 10.5375 17.3374L13.6625 20.4624C13.8381 20.6382 13.9367 20.8765 13.9367 21.1249C13.9367 21.3733 13.8381 21.6116 13.6625 21.7874L10.5375 24.9124C10.4517 25.0045 10.3482 25.0784 10.2332 25.1296C10.1182 25.1809 9.99403 25.2084 9.86815 25.2106C9.74227 25.2129 9.61724 25.1897 9.5005 25.1426C9.38377 25.0954 9.27773 25.0252 9.1887 24.9362C9.09968 24.8472 9.0295 24.7411 8.98235 24.6244C8.93519 24.5077 8.91204 24.3826 8.91426 24.2568C8.91648 24.1309 8.94403 24.0067 8.99527 23.8917C9.04651 23.7767 9.12039 23.6732 9.2125 23.5874L10.7375 22.0624H8C7.08832 22.0624 6.21398 21.7002 5.56932 21.0556C4.92466 20.4109 4.5625 19.5366 4.5625 18.6249V10.0937C3.50372 9.87754 2.55213 9.30224 1.86878 8.46513C1.18542 7.62802 0.81228 6.58052 0.8125 5.49991ZM16.7875 1.08741C16.9631 1.26319 17.0617 1.50147 17.0617 1.74991C17.0617 1.99835 16.9631 2.23663 16.7875 2.41241L15.2625 3.93741H18C18.9117 3.93741 19.786 4.29957 20.4307 4.94423C21.0753 5.58888 21.4375 6.46323 21.4375 7.37491V15.9062C22.5743 16.1401 23.584 16.7874 24.2711 17.7228C24.9582 18.6581 25.274 19.8151 25.1574 20.9699C25.0407 22.1246 24.5 23.1951 23.6396 23.9742C22.7793 24.7532 21.6606 25.1855 20.5 25.1874C19.3375 25.1886 18.2161 24.7578 17.3534 23.9786C16.4908 23.1995 15.9483 22.1276 15.8315 20.971C15.7147 19.8144 16.0318 18.6557 16.7212 17.7198C17.4107 16.7838 18.4233 16.1375 19.5625 15.9062V7.37491C19.5625 6.51241 18.8625 5.81241 18 5.81241H15.2625L16.7875 7.33741C16.9531 7.51513 17.0433 7.75018 17.039 7.99306C17.0347 8.23594 16.9363 8.46767 16.7645 8.63943C16.5928 8.8112 16.361 8.90959 16.1182 8.91388C15.8753 8.91816 15.6402 8.82801 15.4625 8.66241L12.3375 5.53741C12.1619 5.36163 12.0633 5.12335 12.0633 4.87491C12.0633 4.62647 12.1619 4.38819 12.3375 4.21241L15.4625 1.08741C15.6383 0.911844 15.8766 0.813232 16.125 0.813232C16.3734 0.813232 16.6117 0.911844 16.7875 1.08741Z" fill="#DC2626"/>
</svg>
