<svg width="26" height="26" viewBox="0 0 26 26" fill="none" xmlns="http://www.w3.org/2000/svg">
<path d="M4.8194 4.34081C5.51565 1.78831 8.10065 0.250805 10.6282 1.00331L12.0919 1.43706C14.6344 2.19331 16.0319 4.94206 15.2794 7.49706L14.6669 9.57956L16.4132 8.58456C18.8682 7.18456 21.9157 8.31206 22.9932 10.9271L23.6482 12.5196C24.1057 13.6283 24.1307 14.8171 23.8019 15.8821C24.4644 16.3858 24.8332 17.0433 25.0157 17.7596C25.2032 18.4933 25.1957 19.3196 25.1894 20.0033L25.1869 20.3458C25.1869 22.9833 23.1244 25.1871 20.4994 25.1871H6.1994C5.70843 25.1928 5.21908 25.1297 4.74565 24.9996C1.8994 24.2183 0.241901 21.2396 0.993151 18.3696L0.995652 18.3608L4.8194 4.34081ZM11.3819 23.3121H20.4994C22.0182 23.3121 23.3119 22.0196 23.3119 20.3458L23.3132 19.9333C23.3182 19.2383 23.3207 18.7008 23.1994 18.2233C23.1482 17.986 23.0401 17.7646 22.8844 17.5783C22.4432 18.1058 21.8844 18.5458 21.2219 18.8458L11.3819 23.3121ZM11.2132 21.3296L20.4457 17.1383C21.028 16.8703 21.504 16.4154 21.7982 15.8458C22.0067 15.4451 22.1252 15.0037 22.1452 14.5524C22.1653 14.1011 22.0865 13.6509 21.9144 13.2333L21.2594 11.6408C20.5919 10.0208 18.7694 9.39831 17.3419 10.2133L13.9044 12.1733L11.2544 21.1783L11.2132 21.3296ZM6.38065 18.3471C6.14146 18.2793 5.88515 18.3093 5.66808 18.4305C5.45101 18.5517 5.29097 18.7541 5.22315 18.9933L4.9194 20.0608C4.85144 20.3 4.88128 20.5564 5.00236 20.7736C5.12344 20.9908 5.32583 21.151 5.56503 21.2189C5.80422 21.2869 6.06061 21.2571 6.2778 21.136C6.49499 21.0149 6.65519 20.8125 6.72315 20.5733L7.0269 19.5058C7.09467 19.2666 7.06466 19.0103 6.94347 18.7932C6.82228 18.5762 6.61983 18.4149 6.38065 18.3471Z" fill="#DC2626"/>
</svg>
