<svg width="26" height="26" viewBox="0 0 26 26" fill="none" xmlns="http://www.w3.org/2000/svg">
  <path d="M11.2044 0.593823C11.7645 0.32633 12.3774 0.1875 12.9981 0.1875C13.6189 0.1875 14.2317 0.32633 14.7919 0.593823C15.2844 0.830073 15.7356 1.21507 16.3669 1.75382L16.4656 1.83632C17.0656 2.34882 17.6394 2.59132 18.4406 2.65507L18.5681 2.66507C19.3956 2.73132 19.9869 2.77757 20.5019 2.96007C21.0872 3.16686 21.6188 3.50194 22.0579 3.94078C22.497 4.37962 22.8323 4.91111 23.0394 5.49632C23.2206 6.01132 23.2669 6.60257 23.3331 7.43007L23.3431 7.55757C23.4069 8.35882 23.6506 8.93257 24.1619 9.53257L24.2444 9.63007C24.7831 10.2626 25.1694 10.7138 25.4044 11.2063C25.6719 11.7665 25.8107 12.3793 25.8107 13.0001C25.8107 13.6208 25.6719 14.2337 25.4044 14.7938C25.1681 15.2863 24.7831 15.7376 24.2444 16.3688L24.1619 16.4676C23.6394 17.0801 23.4056 17.6563 23.3431 18.4426L23.3331 18.5701C23.2669 19.3976 23.2206 19.9888 23.0381 20.5038C22.8313 21.0891 22.4963 21.6208 22.0574 22.0598C21.6186 22.4989 21.0871 22.8342 20.5019 23.0413C19.9869 23.2226 19.3956 23.2688 18.5681 23.3351L18.4406 23.3451C17.6394 23.4088 17.0656 23.6526 16.4656 24.1638L16.3669 24.2463C15.7356 24.7851 15.2844 25.1713 14.7919 25.4063C14.2317 25.6738 13.6189 25.8126 12.9981 25.8126C12.3774 25.8126 11.7645 25.6738 11.2044 25.4063C10.7119 25.1701 10.2606 24.7851 9.62937 24.2463L9.53062 24.1638C8.98562 23.6726 8.28835 23.3835 7.55562 23.3451L7.42812 23.3351C6.60062 23.2688 6.00937 23.2226 5.49437 23.0401C4.90906 22.8333 4.3774 22.4982 3.93835 22.0594C3.49929 21.6205 3.16394 21.089 2.95687 20.5038C2.77562 19.9888 2.72937 19.3976 2.66312 18.5701L2.65312 18.4426C2.6147 17.7098 2.32564 17.0126 1.83437 16.4676L1.75187 16.3688C1.21312 15.7376 0.82687 15.2863 0.59187 14.7938C0.324376 14.2337 0.185547 13.6208 0.185547 13.0001C0.185547 12.3793 0.324376 11.7665 0.59187 11.2063C0.82812 10.7138 1.21312 10.2626 1.75187 9.63132L1.83437 9.53257C2.32564 8.98757 2.6147 8.2903 2.65312 7.55757L2.66312 7.43007C2.72937 6.60257 2.77562 6.01132 2.95812 5.49632C3.16491 4.91101 3.49999 4.37936 3.93883 3.9403C4.37767 3.50124 4.90916 3.1659 5.49437 2.95882C6.00937 2.77757 6.60062 2.73132 7.42812 2.66507L7.55562 2.65507C8.28835 2.61665 8.98562 2.3276 9.53062 1.83632L9.62812 1.75382C10.2606 1.21507 10.7119 0.828823 11.2044 0.593823ZM18.6606 11.1626C18.7527 11.0767 18.8266 10.9732 18.8778 10.8582C18.9291 10.7432 18.9566 10.6191 18.9589 10.4932C18.9611 10.3673 18.9379 10.2423 18.8908 10.1256C18.8436 10.0088 18.7734 9.9028 18.6844 9.81377C18.5954 9.72475 18.4893 9.65457 18.3726 9.60742C18.2559 9.56027 18.1308 9.53711 18.005 9.53933C17.8791 9.54155 17.7549 9.56911 17.6399 9.62035C17.5249 9.67159 17.4214 9.74546 17.3356 9.83757L13.6231 13.5501L11.7856 11.7126C11.6098 11.537 11.3716 11.4384 11.1231 11.4384C10.8747 11.4384 10.6364 11.537 10.4606 11.7126L7.33562 14.8376C7.24351 14.9234 7.16963 15.0269 7.11839 15.1419C7.06715 15.2569 7.0396 15.381 7.03738 15.5069C7.03516 15.6328 7.05831 15.7578 7.10547 15.8746C7.15262 15.9913 7.2228 16.0973 7.31182 16.1864C7.40084 16.2754 7.50689 16.3456 7.62362 16.3927C7.74036 16.4399 7.86539 16.463 7.99127 16.4608C8.11715 16.4586 8.24129 16.431 8.35629 16.3798C8.47129 16.3286 8.57479 16.2547 8.66062 16.1626L11.1231 13.7001L12.9606 15.5376C13.1364 15.7131 13.3747 15.8117 13.6231 15.8117C13.8716 15.8117 14.1098 15.7131 14.2856 15.5376L18.6606 11.1626Z" fill="#DC2626"/>
</svg>
