<svg width="30" height="30" viewBox="0 0 30 30" fill="none" xmlns="http://www.w3.org/2000/svg">
  <path d="M7.18632 9.3751C7.18633 8.83217 7.34349 8.30085 7.63882 7.84528C7.93415 7.3897 8.35503 7.02934 8.85065 6.8077C9.34628 6.58605 9.89546 6.5126 10.4319 6.5962C10.9684 6.67981 11.4691 6.9169 11.8738 7.27885C12.0594 7.4429 12.3024 7.52685 12.5496 7.51236C12.7969 7.49786 13.0284 7.38609 13.1935 7.20147C13.3587 7.01686 13.444 6.77439 13.431 6.52703C13.4179 6.27968 13.3075 6.04755 13.1238 5.88135C12.6657 5.46676 12.1301 5.14683 11.5479 4.93997C10.9657 4.7331 10.3484 4.64338 9.73137 4.67595C9.11436 4.70853 8.50989 4.86277 7.9527 5.12979C7.39552 5.39681 6.89662 5.77136 6.48471 6.23188C6.07279 6.6924 5.75598 7.22982 5.5525 7.81321C5.34902 8.39661 5.26289 9.01448 5.29905 9.63128C5.33521 10.2481 5.49296 10.8517 5.76322 11.4073C6.03348 11.9629 6.41091 12.4596 6.87382 12.8688C7.0594 13.0329 7.30236 13.1169 7.54963 13.1024C7.7969 13.0879 8.02839 12.9761 8.19352 12.7915C8.35866 12.6069 8.44402 12.3644 8.43096 12.117C8.4179 11.8697 8.30748 11.6376 8.12382 11.4713C7.82826 11.2081 7.59189 10.8851 7.43029 10.5237C7.26869 10.1624 7.18554 9.77092 7.18632 9.3751ZM19.9988 4.6876C18.8456 4.68645 17.7326 5.11161 16.8738 5.88135C16.6902 6.04755 16.5797 6.27968 16.5667 6.52703C16.5536 6.77439 16.639 7.01686 16.8041 7.20147C16.9693 7.38609 17.2007 7.49786 17.448 7.51236C17.6953 7.52685 17.9382 7.4429 18.1238 7.27885C18.6799 6.78157 19.4108 6.52557 20.1557 6.56718C20.9006 6.60879 21.5984 6.9446 22.0957 7.50072C22.593 8.05685 22.849 8.78774 22.8074 9.53261C22.7658 10.2775 22.4299 10.9753 21.8738 11.4726C21.6977 11.6407 21.594 11.8707 21.5844 12.114C21.5749 12.3572 21.6604 12.5946 21.8227 12.776C21.9851 12.9574 22.2117 13.0685 22.4545 13.0858C22.6973 13.1031 22.9373 13.0253 23.1238 12.8688C23.8314 12.2359 24.3301 11.4031 24.554 10.4806C24.7779 9.55806 24.7164 8.58929 24.3776 7.70247C24.0389 6.81565 23.4389 6.05258 22.657 5.51423C21.8751 4.97588 20.9481 4.68762 19.9988 4.6876Z" fill="#DC2626"/>
  <path d="M15 8.4375C14.3844 8.4375 13.7749 8.55875 13.2062 8.79431C12.6375 9.02988 12.1207 9.37516 11.6854 9.81044C11.2502 10.2457 10.9049 10.7625 10.6693 11.3312C10.4337 11.8999 10.3125 12.5094 10.3125 13.125C10.3125 13.7406 10.4337 14.3501 10.6693 14.9188C10.9049 15.4875 11.2502 16.0043 11.6854 16.4396C12.1207 16.8748 12.6375 17.2201 13.2062 17.4557C13.7749 17.6913 14.3844 17.8125 15 17.8125C16.2432 17.8125 17.4355 17.3186 18.3146 16.4396C19.1936 15.5605 19.6875 14.3682 19.6875 13.125C19.6875 11.8818 19.1936 10.6895 18.3146 9.81044C17.4355 8.93136 16.2432 8.4375 15 8.4375ZM7.7375 18.095C7.85667 18.0638 7.96854 18.0095 8.06671 17.935C8.16487 17.8606 8.24742 17.7676 8.30964 17.6613C8.37185 17.5549 8.41252 17.4374 8.42931 17.3154C8.4461 17.1933 8.43869 17.0692 8.4075 16.95C8.37631 16.8308 8.32195 16.719 8.24753 16.6208C8.17311 16.5226 8.08008 16.4401 7.97376 16.3779C7.86744 16.3156 7.7499 16.275 7.62786 16.2582C7.50583 16.2414 7.38167 16.2488 7.2625 16.28C6.05 16.5988 4.9675 17.1325 4.17 17.85C3.37 18.5687 2.8125 19.52 2.8125 20.625C2.8125 20.8736 2.91127 21.1121 3.08709 21.2879C3.2629 21.4637 3.50136 21.5625 3.75 21.5625C3.99864 21.5625 4.2371 21.4637 4.41291 21.2879C4.58873 21.1121 4.6875 20.8736 4.6875 20.625C4.6875 20.1925 4.9 19.7138 5.425 19.2438C5.95 18.7713 6.7425 18.3575 7.7375 18.095ZM22.7375 16.2812C22.5007 16.2285 22.2526 16.2696 22.0455 16.3959C21.8384 16.5223 21.6883 16.724 21.6268 16.9587C21.5653 17.1933 21.5972 17.4427 21.7157 17.6544C21.8343 17.8661 22.0303 18.0236 22.2625 18.0938C23.2575 18.3563 24.05 18.7713 24.575 19.2438C25.1 19.7138 25.3125 20.1938 25.3125 20.625C25.3125 20.8736 25.4113 21.1121 25.5871 21.2879C25.7629 21.4637 26.0014 21.5625 26.25 21.5625C26.4986 21.5625 26.7371 21.4637 26.9129 21.2879C27.0887 21.1121 27.1875 20.8736 27.1875 20.625C27.1875 19.52 26.63 18.5687 25.83 17.85C25.0325 17.1325 23.95 16.5987 22.7375 16.2812ZM15 19.6875C13.1337 19.6875 11.3988 20.14 10.0988 20.92C8.8175 21.6888 7.8125 22.8813 7.8125 24.375C7.8125 24.6236 7.91127 24.8621 8.08709 25.0379C8.2629 25.2137 8.50136 25.3125 8.75 25.3125C8.99864 25.3125 9.2371 25.2137 9.41291 25.0379C9.58873 24.8621 9.6875 24.6236 9.6875 24.375C9.6875 23.7975 10.0825 23.1162 11.0625 22.5275C12.025 21.95 13.415 21.5625 15 21.5625C16.585 21.5625 17.975 21.95 18.9375 22.5275C19.9175 23.115 20.3125 23.7987 20.3125 24.375C20.3125 24.6236 20.4113 24.8621 20.5871 25.0379C20.7629 25.2137 21.0014 25.3125 21.25 25.3125C21.4986 25.3125 21.7371 25.2137 21.9129 25.0379C22.0887 24.8621 22.1875 24.6236 22.1875 24.375C22.1875 22.8813 21.1825 21.6875 19.9012 20.92C18.6012 20.14 16.8663 19.6875 15 19.6875Z" fill="#DC2626"/>
</svg>
